<svg xmlns="http://www.w3.org/2000/svg" viewBox="0 0 109.13 186.95"><defs><style>.cls-1{fill:#ffb5a3;}.cls-2{fill:#d12c11;}.cls-3{fill:#fff;}.cls-4{fill:#fbc52c;}.cls-5{fill:#a07d30;}.cls-6{fill:#7fbedd;}.cls-7{fill:#1b2e49;}.cls-8{fill:#fa502c;}.cls-9{fill:#f7ffff;}.cls-10{fill:#f29e8c;}.cls-11{fill:#0d162d;}.cls-12{fill:#f66;}.cls-13{fill:#1d1d1b;}.cls-14{fill:#72a5c1;}.cls-15{fill:#793b1c;}.cls-16{fill:#3f190a;}.cls-17{fill:#512410;}.cls-18{fill:#331408;}.cls-19{fill:#fdd958;}</style></defs><g id="Layer_2" data-name="Layer 2"><g id="OBJECTS"><path class="cls-1" d="M14.13,73.31s-3.21-5.69-4.19-5.5,0,3.64,0,3.64-5.62-3.71-6.2-3.26,3.69,4.53,3.69,4.53-5.61-2.08-6.08-.85,4.92,3.22,4.92,3.22-5.7.73-5.64,1.23,6.83,1.19,6.83,1.19S3.93,79,3.94,79.62,9.4,79.72,14.5,76Z"/><path class="cls-2" d="M50.33,46.12C61.41,45.5,57,70.05,53.26,74.51s-38.76,2.6-38.76,2.6-1.42-1-.37-3.8c0,0,7.87-2.14,18.27-4.37s11.75-1.34,11.86-6.25S43.58,46.5,50.33,46.12Z"/><polygon class="cls-3" points="4.97 31.42 3.83 39.33 34.6 41.7 34.94 33.7 4.97 31.42"/><polygon class="cls-4" points="36.26 32.97 35.85 42.33 2.58 40.28 2.67 38.7 34.14 41.05 34.42 34.27 4.19 31.89 4.39 30.5 36.26 32.97"/><polygon class="cls-3" points="4.1 47.49 3.81 39.82 33.29 42.26 32.97 48.38 4.1 47.49"/><polygon class="cls-5" points="34.16 49.21 34.55 41.79 2.72 38.78 2.64 40.3 32.79 42.84 32.53 47.78 3.4 46.96 3.45 48.31 34.16 49.21"/><polygon class="cls-3" points="2.04 56.82 1.8 46.9 34.52 49.77 34.09 57.68 2.04 56.82"/><polygon class="cls-4" points="35.41 58.75 35.92 49.14 0.6 45.56 0.49 47.53 33.96 50.52 33.62 56.91 1.27 56.14 1.31 57.89 35.41 58.75"/><polygon class="cls-3" points="3.67 84.43 2.95 76.47 33.71 77.38 33.71 83.75 3.67 84.43"/><polygon class="cls-5" points="34.99 84.55 34.99 76.81 1.76 75.45 1.76 77.04 33.23 78 33.23 83.15 2.92 83.92 3.04 85.32 34.99 84.55"/><polygon class="cls-3" points="3.59 67.81 2.9 75.45 32.48 77.07 32.47 68.46 3.59 67.81"/><polygon class="cls-4" points="33.7 67.69 33.71 77.61 1.76 76.43 1.76 74.91 32.01 76.47 32 69.03 2.87 68.3 2.99 66.95 33.7 67.69"/><polygon class="cls-3" points="2.04 58.38 1.27 68.28 34.09 67.15 34.09 59.23 2.04 58.38"/><polygon class="cls-5" points="35.46 58.23 35.46 67.86 0 69.55 0 67.57 33.57 66.38 33.57 59.97 1.24 59.02 1.37 57.28 35.46 58.23"/><ellipse class="cls-6" cx="59.08" cy="180.01" rx="50.05" ry="6.95"/><path class="cls-1" d="M46.3,174l-6.95.59,4.92-65.28,10.9-2.55C52.41,123.87,47.62,160.57,46.3,174Z"/><polygon class="cls-3" points="46.81 175.93 38.65 175.6 40.1 159.35 48.06 159.35 46.81 175.93"/><polygon class="cls-3" points="69.48 175.6 77.22 175.6 76.23 160.22 67.92 160.22 69.48 175.6"/><path class="cls-7" d="M47.75,172c-3.89.38-5.25.94-9.1,0l7-79.89L62.8,85.28Z"/><path class="cls-7" d="M78.09,171.91c-3.34.45-6.3,1-9.51.39l-15.44-80L72.3,92Z"/><path class="cls-8" d="M63.74,42.29a8.93,8.93,0,0,0-3.85-1.16,8.93,8.93,0,0,0-3.9,1c-3.8,2.43-5.9,3.49-9.11,6.06-1.69,1.35-2.15,9.31-2.22,12.47-.21,8.88.06,35.52.06,35.52,5.45,6.19,18.87,3.76,25.06,2.22,2-.49,3.23-.9,3.23-.9l-.87-14,0-11.57,0-12.62,2.83.07c3.07.07,3.29-4.23,3.29-4.23C78.47,49.1,69.5,46.37,63.74,42.29Z"/><path class="cls-9" d="M52.19,44.3s-3.6,13.12.68,13.57c7.65.82,14.7-13.31,14.7-13.31l-6.21-3.78-4.74.31Z"/><path class="cls-1" d="M60.73,42.69a15.44,15.44,0,0,1-5,.32l-.05,2.12c-.08,3.56,7.54,3.73,7.62.18l.09-3.68A20.65,20.65,0,0,1,60.73,42.69Z"/><path class="cls-1" d="M63.58,33.47,56,33.29l-.12,5.07c2.42-.28,5.74-.66,7.65-.9Z"/><path class="cls-10" d="M60.73,42.69a20.65,20.65,0,0,0,2.67-1.06l.09-4.17c-1.91.24-5.23.62-7.65.9L55.74,43A15.44,15.44,0,0,0,60.73,42.69Z"/><path class="cls-10" d="M54.8,41.15h0A12.55,12.55,0,0,1,44.57,26.63l2.32-13.36A12.55,12.55,0,0,1,61.41,3h0A12.55,12.55,0,0,1,71.63,17.56L69.31,30.93A12.54,12.54,0,0,1,54.8,41.15Z"/><path class="cls-1" d="M53,40.85h0c-6.28-1.09-9.74-6.82-8.65-13.1L46.3,12.14A11.54,11.54,0,0,1,59.64,2.73h0a11.55,11.55,0,0,1,9.41,13.35L66.38,31.44A11.55,11.55,0,0,1,53,40.85Z"/><path class="cls-11" d="M48.35,17.75a14,14,0,0,1,3.83.48.93.93,0,0,0,1.15-.75h0a.93.93,0,0,0-.61-1.05,11.49,11.49,0,0,0-4.46-.56.93.93,0,0,0-.84.88h0A.93.93,0,0,0,48.35,17.75Z"/><path class="cls-11" d="M59.71,19.51a15.33,15.33,0,0,1,4.22.75.94.94,0,0,0,1.2-.69l0-.12a.92.92,0,0,0-.55-1.08,12.55,12.55,0,0,0-4.87-.86.94.94,0,0,0-.89.83v.13A.93.93,0,0,0,59.71,19.51Z"/><path class="cls-10" d="M68.12,28.32c-.9,2.74-.07,5.29,1.87,5.7s4.25-1.49,5.16-4.24.07-5.29-1.87-5.69S69,25.58,68.12,28.32Z"/><path class="cls-10" d="M50.53,26.91s.33,2.34,2.11,2.45a3.4,3.4,0,0,0,2.82-1.55,8.58,8.58,0,0,1-2.9.33A4.39,4.39,0,0,1,50.53,26.91Z"/><path class="cls-11" d="M68.3,13.69S53.35,4.34,44.11,15.34c0,0-.48-8.7,4.1-12.23S66.3-3,72.14,7.31a6.83,6.83,0,0,1,5.47,9.74,28.77,28.77,0,0,1-4,6.32,4.18,4.18,0,0,1-1.76,1.29,5,5,0,0,0-2.38,2s-.66-1.68-1.32-3.12A14.51,14.51,0,0,1,68.3,13.69Z"/><path class="cls-11" d="M53.48,33.89a3.25,3.25,0,0,1,1.57.59,4.66,4.66,0,0,0,.79-1.95,11.15,11.15,0,0,1-4,.22,14.48,14.48,0,0,1-2.75-1,4.19,4.19,0,0,0,1.36,3.39A3.05,3.05,0,0,1,53.48,33.89Z"/><path class="cls-12" d="M55.05,34.48a3.25,3.25,0,0,0-1.57-.59,3.05,3.05,0,0,0-3.06,1.25,3.29,3.29,0,0,0,1.57.59A3.06,3.06,0,0,0,55.05,34.48Z"/><path class="cls-3" d="M25.29,182.43l22.34-.08,0-1.48H25.31A6.22,6.22,0,0,0,25.29,182.43Z"/><path class="cls-13" d="M47.75,173.83A.79.79,0,0,0,47,173l-8.18,0-2.41,2.77-5.72.57a5.18,5.18,0,0,0-5.34,4.53H47.65l.08-5.28h0Z"/><path class="cls-3" d="M30.94,176.31a9.94,9.94,0,0,1,4,1.91h1.87a9.45,9.45,0,0,0-3.47-2.15Z"/><path class="cls-3" d="M34.22,176a10.1,10.1,0,0,1,4,1.91H40.1a9.57,9.57,0,0,0-3.47-2.15Z"/><path class="cls-3" d="M78,180.87l0,1.48-22.34.08a6.76,6.76,0,0,1,0-1.56Z"/><path class="cls-13" d="M55.64,180.87a5,5,0,0,1,5.24-4.35l6-.67L69.12,173l8.18,0a.79.79,0,0,1,.79.79v1.76h0L78,180.87Z"/><path class="cls-3" d="M61.69,176.39a10.1,10.1,0,0,1,4,1.91h1.87a9.57,9.57,0,0,0-3.47-2.15Z"/><path class="cls-3" d="M65,176.07a10,10,0,0,1,4,1.9h1.87a9.45,9.45,0,0,0-3.47-2.15Z"/><path class="cls-11" d="M60,23.5c-.26,1.15.07,2.21.74,2.36s1.42-.66,1.68-1.81-.08-2.21-.74-2.36S60.22,22.35,60,23.5Z"/><path class="cls-11" d="M48.48,21.52c-.26,1.15.07,2.21.74,2.35s1.42-.66,1.67-1.81-.07-2.21-.74-2.36S48.74,20.37,48.48,21.52Z"/><path class="cls-14" d="M72.7,97.59l.58,7.93a11.43,11.43,0,0,1-8-6.17S68.93,98.63,72.7,97.59Z"/><path class="cls-15" d="M81.3,116.9c.84-5.76,7.93-56.64-2.25-68.42a7.52,7.52,0,0,0-5.77-2.78,7.77,7.77,0,0,0-5.87,2.76c-10.77,11.78-6.53,62.57-6,68.32l4.36-.39c-1.36-15.1-3.14-56.2,4.88-65a3.42,3.42,0,0,1,2.64-1.33,3.1,3.1,0,0,1,2.46,1.26c7.51,8.7,3.44,49.82,1.23,64.93Z"/><path class="cls-1" d="M35.89,76.15s-3.21-5.7-4.19-5.5,0,3.63,0,3.63-5.61-3.71-6.2-3.26,3.69,4.53,3.69,4.53-5.61-2.08-6.07-.85,4.91,3.22,4.91,3.22-5.7.73-5.64,1.23,6.83,1.19,6.83,1.19-3.55,1.45-3.54,2.11,5.47.1,10.56-3.63Z"/><path class="cls-2" d="M72.09,49c11.09-.63,6.69,23.92,2.93,28.38s-38.76,2.6-38.76,2.6-1.42-1-.37-3.79c0,0,7.88-2.15,18.28-4.38S65.91,70.43,66,65.52,65.34,49.33,72.09,49Z"/><rect class="cls-16" x="56.21" y="104.35" width="29.88" height="22.33" rx="1" transform="translate(142.31 231.02) rotate(-180)"/><rect class="cls-17" x="58.53" y="104.35" width="29.88" height="22.33" rx="1" transform="translate(146.95 231.02) rotate(-180)"/><polygon class="cls-18" points="73.47 104.35 87.03 104.35 84.39 119.1 62.56 119.1 59.92 104.35 73.47 104.35"/><rect class="cls-19" x="71.16" y="117.87" width="4.64" height="2.46" transform="translate(146.95 238.19) rotate(-180)"/><path class="cls-1" d="M63.68,26.61s-2.3-3.31-6.26-.82l1.2,2.43Z"/><path class="cls-1" d="M52.69,24.71s-2.3-3.3-6.27-.81l1.21,2.42Z"/><path class="cls-3" d="M60.58,23c-.1.27,0,.55.14.61s.41-.1.5-.38,0-.54-.14-.61S60.68,22.77,60.58,23Z"/><path class="cls-3" d="M49,21.16c-.1.28,0,.55.15.62s.4-.11.5-.38,0-.55-.14-.62S49.09,20.89,49,21.16Z"/></g></g></svg>